<mxfile host="app.diagrams.net" modified="2023-10-17T12:19:48.336Z" agent="Mozilla/5.0 (Windows NT 10.0; Win64; x64) AppleWebKit/537.36 (KHTML, like Gecko) Chrome/117.0.0.0 Safari/537.36" etag="nPlzUVdQGw9ONEkxuHwq" version="22.0.4" type="device">
  <diagram name="Страница — 1" id="G4s3sH0X6-wF7HITFroM">
    <mxGraphModel dx="988" dy="614" grid="1" gridSize="10" guides="1" tooltips="1" connect="1" arrows="1" fold="1" page="1" pageScale="1" pageWidth="827" pageHeight="1169" math="0" shadow="0">
      <root>
        <mxCell id="0" />
        <mxCell id="1" parent="0" />
        <mxCell id="WYWA0Hb8qkJH06igUzf3-1" value="User" style="shape=umlActor;verticalLabelPosition=bottom;verticalAlign=top;html=1;outlineConnect=0;" vertex="1" parent="1">
          <mxGeometry x="250" y="230" width="30" height="60" as="geometry" />
        </mxCell>
        <mxCell id="WYWA0Hb8qkJH06igUzf3-7" style="edgeStyle=orthogonalEdgeStyle;rounded=0;orthogonalLoop=1;jettySize=auto;html=1;exitX=1;exitY=0.5;exitDx=0;exitDy=0;entryX=0;entryY=0.5;entryDx=0;entryDy=0;" edge="1" parent="1" source="WYWA0Hb8qkJH06igUzf3-2" target="WYWA0Hb8qkJH06igUzf3-3">
          <mxGeometry relative="1" as="geometry" />
        </mxCell>
        <mxCell id="WYWA0Hb8qkJH06igUzf3-2" value="Авторизация" style="ellipse;whiteSpace=wrap;html=1;" vertex="1" parent="1">
          <mxGeometry x="330" y="235" width="120" height="50" as="geometry" />
        </mxCell>
        <mxCell id="WYWA0Hb8qkJH06igUzf3-8" style="edgeStyle=orthogonalEdgeStyle;rounded=0;orthogonalLoop=1;jettySize=auto;html=1;exitX=1;exitY=1;exitDx=0;exitDy=0;" edge="1" parent="1" source="WYWA0Hb8qkJH06igUzf3-3" target="WYWA0Hb8qkJH06igUzf3-5">
          <mxGeometry relative="1" as="geometry">
            <Array as="points">
              <mxPoint x="592" y="335" />
            </Array>
          </mxGeometry>
        </mxCell>
        <mxCell id="WYWA0Hb8qkJH06igUzf3-9" style="edgeStyle=orthogonalEdgeStyle;rounded=0;orthogonalLoop=1;jettySize=auto;html=1;exitX=1;exitY=0;exitDx=0;exitDy=0;entryX=0;entryY=0.5;entryDx=0;entryDy=0;" edge="1" parent="1" source="WYWA0Hb8qkJH06igUzf3-3" target="WYWA0Hb8qkJH06igUzf3-4">
          <mxGeometry relative="1" as="geometry">
            <Array as="points">
              <mxPoint x="590" y="242" />
              <mxPoint x="590" y="195" />
            </Array>
          </mxGeometry>
        </mxCell>
        <mxCell id="WYWA0Hb8qkJH06igUzf3-3" value="Поиск самолета по ID" style="ellipse;whiteSpace=wrap;html=1;" vertex="1" parent="1">
          <mxGeometry x="490" y="235" width="120" height="55" as="geometry" />
        </mxCell>
        <mxCell id="WYWA0Hb8qkJH06igUzf3-4" value="Получение отчета" style="ellipse;whiteSpace=wrap;html=1;" vertex="1" parent="1">
          <mxGeometry x="640" y="170" width="120" height="50" as="geometry" />
        </mxCell>
        <mxCell id="WYWA0Hb8qkJH06igUzf3-5" value="Получение метрик" style="ellipse;whiteSpace=wrap;html=1;" vertex="1" parent="1">
          <mxGeometry x="640" y="310" width="120" height="50" as="geometry" />
        </mxCell>
        <mxCell id="WYWA0Hb8qkJH06igUzf3-6" value="" style="endArrow=classic;html=1;rounded=0;entryX=0;entryY=0.5;entryDx=0;entryDy=0;" edge="1" parent="1" source="WYWA0Hb8qkJH06igUzf3-1" target="WYWA0Hb8qkJH06igUzf3-2">
          <mxGeometry width="50" height="50" relative="1" as="geometry">
            <mxPoint x="390" y="340" as="sourcePoint" />
            <mxPoint x="440" y="290" as="targetPoint" />
          </mxGeometry>
        </mxCell>
      </root>
    </mxGraphModel>
  </diagram>
</mxfile>
